<svg id="Layer_5" enable-background="new 0 0 64 64" height="512" viewBox="0 0 64 64" width="512" xmlns="http://www.w3.org/2000/svg" xmlns:xlink="http://www.w3.org/1999/xlink"><linearGradient id="SVGID_1_" gradientUnits="userSpaceOnUse" x1="32" x2="32" y1="63" y2="1"><stop offset="0" stop-color="#9f2fff"/><stop offset="1" stop-color="#0bb1d3"/></linearGradient><path d="m16 13v2c0 1.103.897 2 2 2 2.206 0 4 1.794 4 4v4h-3v2h-2v-2.142c-1.72-.447-3-1.999-3-3.858h2c0 1.103.897 2 2 2h2v-2c0-1.103-.897-2-2-2-2.206 0-4-1.794-4-4v-4h3v-2h2v2.142c1.72.447 3 1.999 3 3.858h-2c0-1.103-.897-2-2-2zm47 17v8c0 2.206-1.794 4-4 4h-10c-1.103 0-2 .897-2 2s.897 2 2 2h10c2.206 0 4 1.794 4 4s-1.794 4-4 4h-30c0 4.963-4.038 9-9 9h-9c-5.514 0-10-4.486-10-10s4.486-10 10-10h9c4.962 0 9 4.037 9 9h30c1.103 0 2-.897 2-2s-.897-2-2-2h-10c-2.206 0-4-1.794-4-4s1.794-4 4-4h10c1.103 0 2-.897 2-2v-8c0-1.103-.897-2-2-2h-4v8h-10v-1.798l-1.438.958c-.823.55-1.782.84-2.773.84h-13.789c-1.36 0-2.499-.916-2.865-2.159-1.951.758-4.005 1.159-6.135 1.159-9.374 0-17-7.626-17-17s7.626-17 17-17c6.81 0 12.742 4.029 15.455 9.871.318-.8.796-1.536 1.424-2.164.45-.449 1.072-.707 1.707-.707 1.331 0 2.414 1.083 2.414 2.414v6.465c0 1.102.429 2.136 1.207 2.914.768.767 1.83 1.207 2.914 1.207h1.879v-2h10v7h4c2.206 0 4 1.794 4 4zm-45 3c2.237 0 4.381-.493 6.384-1.439.112-.202.243-.391.396-.561-.373-.414-.633-.928-.73-1.501-1.849.975-3.917 1.501-6.05 1.501-7.168 0-13-5.832-13-13s5.832-13 13-13 13 5.832 13 13h1c.546 0 .988-.44.997-.984-.509-7.863-7.085-14.016-14.997-14.016-8.271 0-15 6.729-15 15s6.729 15 15 15zm9-15h2c0-6.065-4.935-11-11-11s-11 4.935-11 11 4.935 11 11 11c2.402 0 4.709-.78 6.607-2.209-.376-.502-.607-1.117-.607-1.791 0-.771.301-1.468.78-2-.48-.532-.78-1.229-.78-2 0-1.654 1.346-3 3-3zm18 14v-9h-1.879c-1.634 0-3.171-.637-4.328-1.793-1.156-1.155-1.793-2.692-1.793-4.328v-6.465c0-.337-.468-.534-.708-.292-.833.833-1.292 1.941-1.292 3.12v3.758c0 1.654-1.346 3-3 3h-5c-.551 0-1 .448-1 1s.449 1 1 1h3v2h-3c-.551 0-1 .448-1 1s.449 1 1 1h3v2h-3c-.551 0-1 .448-1 1s.449 1 1 1h3v2h-3c-.551 0-1 .448-1 1s.449 1 1 1h13.789c.595 0 1.17-.174 1.664-.504l2.244-1.496zm8-11h-6v13h6zm-33 24h-3v7h2.184c.414-1.161 1.514-2 2.816-2h4.705c-.863-2.888-3.54-5-6.705-5zm7 7h-5c-.551 0-1 .448-1 1s.449 1 1 1h5zm-16 9h4v-16h-4c-4.411 0-8 3.589-8 8s3.589 8 8 8zm15.705-5h-4.705c-1.302 0-2.402-.839-2.816-2h-2.184v7h3c3.165 0 5.842-2.113 6.705-5z" fill="url(#SVGID_1_)"/></svg>