<svg id="Icons" enable-background="new 0 0 512 512" height="512" viewBox="0 0 512 512" width="512" xmlns="http://www.w3.org/2000/svg"><g><circle cx="256" cy="256" fill="#f9c744" r="256"/><g><g><g><path d="m478.2 383.21c-4.98 8.68-10.45 17.03-16.37 25.03-3.13 4.22-6.38 8.34-9.75 12.35h-365.86c-10.32 0-18.69-8.37-18.69-18.7 0-5.15 2.09-9.83 5.47-13.21 2.85-2.85 6.63-4.78 10.84-5.31.77-.1 1.57-.16 2.38-.16z" fill="#d48d77"/><path d="m478.2 383.21c-4.98 8.68-10.45 17.03-16.37 25.03h-360.35c-10.33 0-18.7-8.37-18.7-18.7 0-2.16.37-4.24 1.06-6.17.77-.1 1.57-.16 2.38-.16z" fill="#eea47d"/><path d="m438.348 408.237h-242.973c-6.911 0-12.513-5.602-12.513-12.513s5.602-12.513 12.513-12.513h242.973c6.911 0 12.513 5.602 12.513 12.513s-5.602 12.513-12.513 12.513z" fill="#f5b890"/></g><g><path d="m452.08 420.59c-7.41 8.82-15.4 17.12-23.91 24.87-2.64 2.4-5.34 4.75-8.08 7.03-13.99 11.71-29.25 21.94-45.55 30.46-35.44 18.56-75.76 29.05-118.54 29.05-42.64 0-82.85-10.43-118.21-28.88-7.93-4.13-15.62-8.67-23.04-13.58v-48.95z" fill="#a26d5a"/><path d="m428.17 445.46c-2.64 2.4-5.34 4.75-8.08 7.03-13.99 11.71-29.25 21.94-45.55 30.46-35.44 18.56-75.76 29.05-118.54 29.05-42.64 0-82.85-10.43-118.21-28.88v-24.71c0-7.98 6.47-14.45 14.45-14.45h269.52c2.3 0 4.48.54 6.41 1.5z" fill="#c17e62"/><path d="m420.09 452.49c-13.99 11.71-29.25 21.94-45.55 30.46h-157.48c-10.77 0-19.49-8.73-19.49-19.49 0-5.38 2.18-10.26 5.71-13.79 3.52-3.53 8.4-5.71 13.78-5.71h186.92c6.7 0 12.61 3.38 16.11 8.53z" fill="#d48d77"/></g></g><g><g fill="#fbd9a3"><path d="m412.64 306.453c-.913 0-1.653-.74-1.653-1.653 0-3.627 3.756-5.194 7.07-6.577 2.476-1.033 5.036-2.102 5.036-3.525 0-1.426-2.561-2.495-5.037-3.529-3.314-1.384-7.069-2.952-7.069-6.58 0-3.629 3.756-5.197 7.069-6.58 2.476-1.034 5.037-2.103 5.037-3.529 0-.913.74-1.653 1.653-1.653s1.653.74 1.653 1.653c0 3.629-3.756 5.197-7.069 6.58-2.476 1.034-5.037 2.103-5.037 3.529s2.56 2.495 5.037 3.529c3.314 1.384 7.069 2.952 7.069 6.581 0 3.627-3.756 5.194-7.069 6.577-2.476 1.033-5.037 2.102-5.037 3.526 0 .911-.74 1.651-1.653 1.651z"/><path d="m431.353 283.206c-.913 0-1.653-.74-1.653-1.653 0-3.627 3.756-5.194 7.07-6.577 2.476-1.033 5.036-2.102 5.036-3.525 0-1.426-2.561-2.495-5.037-3.529-3.314-1.384-7.069-2.952-7.069-6.58s3.755-5.197 7.069-6.58c2.476-1.034 5.037-2.103 5.037-3.529 0-.913.74-1.653 1.653-1.653s1.653.74 1.653 1.653c0 3.629-3.756 5.197-7.069 6.581-2.476 1.034-5.037 2.103-5.037 3.529s2.56 2.495 5.037 3.529c3.314 1.384 7.069 2.952 7.069 6.581 0 3.627-3.756 5.194-7.069 6.577-2.476 1.033-5.037 2.102-5.037 3.526 0 .91-.74 1.65-1.653 1.65z"/><path d="m432.628 316.792c-.913 0-1.653-.74-1.653-1.653 0-3.627 3.756-5.194 7.07-6.577 2.476-1.033 5.036-2.102 5.036-3.525 0-1.426-2.561-2.495-5.037-3.529-3.314-1.384-7.069-2.952-7.069-6.58 0-3.629 3.756-5.197 7.069-6.58 2.476-1.034 5.037-2.103 5.037-3.529 0-.913.74-1.653 1.653-1.653s1.653.74 1.653 1.653c0 3.629-3.756 5.197-7.069 6.58-2.476 1.034-5.037 2.103-5.037 3.529s2.56 2.495 5.037 3.529c3.314 1.384 7.069 2.952 7.069 6.581 0 3.627-3.756 5.194-7.069 6.577-2.476 1.033-5.037 2.102-5.037 3.526 0 .911-.74 1.651-1.653 1.651z"/></g><g><g><path d="m394.706 354.934c0 .198.008.405.025.603.306 5.447 4.844 9.786 10.365 9.786h3.943v7.439h-3.943c-8.753 0-16.052-6.34-17.54-14.663-.19-1.025-.289-2.083-.289-3.166 0-7.795 5.017-14.424 11.993-16.845 1.827-.636 3.794-.984 5.836-.984h3.943v7.439h-3.943c-1.637 0-3.174.38-4.554 1.05-3.447 1.695-5.836 5.241-5.836 9.341z" fill="#22bce0"/><path d="m400.625 344.123c0 .496-.025.992-.083 1.471-3.447 1.694-5.836 5.24-5.836 9.34 0 .198.008.405.025.603-2.05 1.463-4.513 2.389-7.175 2.562-.19-1.025-.289-2.083-.289-3.166 0-.984.083-1.959.24-2.901.843-5.183 3.943-9.621 8.257-12.283 1.091-.678 2.265-1.232 3.496-1.661.877 1.827 1.365 3.877 1.365 6.035z" fill="#4fcae8"/><path d="m396.426 343.139c0 4.918-3.984 8.894-8.894 8.894h-.025c.843-5.183 3.943-9.621 8.257-12.283.422 1.05.662 2.19.662 3.389z" fill="#83d5ef"/></g><g><path d="m451.64 327.459v50.933c0 2.661-2.157 4.819-4.819 4.819h-36.27c-2.662 0-4.819-2.157-4.819-4.819v-50.933c0-2.661 2.157-4.819 4.819-4.819h36.27c2.662 0 4.819 2.157 4.819 4.819z" fill="#22a8b9"/><path d="m451.64 327.459v43.734c-3.273 2.364-7.282 3.753-11.63 3.753h-6.117c-10.985 0-19.895-8.91-19.895-19.895v-20.78c0-4.339 1.397-8.357 3.753-11.63h29.07c2.662-.001 4.819 2.156 4.819 4.818z" fill="#4fcae8"/><path d="m451.64 327.459v6.522c-1.108.926-2.538 1.488-4.108 1.488h-33.534v-1.198c0-4.339 1.397-8.357 3.753-11.63h29.07c2.662-.001 4.819 2.156 4.819 4.818z" fill="#cde6f6"/><path d="m417.751 322.64c-2.356 3.273-3.753 7.29-3.753 11.63v1.198h-8.266v-8.009c0-2.661 2.157-4.819 4.819-4.819z" fill="#4fcae8"/><path d="m443.984 326.379h-30.594c-1.478 0-2.677 1.199-2.677 2.677s1.199 2.677 2.677 2.677h30.594c1.478 0 2.677-1.199 2.677-2.677s-1.198-2.677-2.677-2.677z" fill="#bf5e39"/><path d="m441.781 369.846c2.544 0 4.607-2.062 4.607-4.607v-21.925c0-2.544-2.062-4.607-4.607-4.607-2.544 0-4.607 2.062-4.607 4.607v21.925c.001 2.545 2.063 4.607 4.607 4.607z" fill="#83d5ef"/></g></g></g><g><g><path d="m282.786 363.05v20.16h85.724v-20.16c0-17.615-14.276-31.9-31.9-31.9h-21.923c-17.626 0-31.901 14.285-31.901 31.9z" fill="#dd5e26"/><path d="m282.786 363.05v20.16h65.309v-20.16c0-17.615-14.276-31.9-31.9-31.9h-1.508c-17.626 0-31.901 14.285-31.901 31.9z" fill="#ea792e"/></g><g><path d="m311.484 317.755v15.382c0 7.823 6.345 14.158 14.168 14.158 2.624 0 5.082-.715 7.187-1.958 4.171-2.458 6.972-7.001 6.972-12.2v-15.382z" fill="#9b5b42"/><path d="m339.811 317.755v15.382c0 5.199-2.8 9.742-6.972 12.2v-16.44c-4.925 2.056-10.34 3.192-16.019 3.192-1.811 0-3.594-.117-5.336-.333v-14.002h28.327z" fill="#8e4e3f"/></g><g><g><g><path d="m365.512 271.557h-7.024v-21.978h7.024c6.069 0 10.989 4.92 10.989 10.989s-4.92 10.989-10.989 10.989z" fill="#8e4e3f"/><path d="m365.866 265.283h-7.378v-9.431h7.378c2.604 0 4.716 2.111 4.716 4.716 0 2.604-2.111 4.715-4.716 4.715z" fill="#723e33"/></g><g><path d="m272.074 249.578h3.076v21.978h-3.076c-6.069 0-10.989-4.92-10.989-10.989s4.92-10.989 10.989-10.989z" fill="#8e4e3f"/><path d="m271.719 255.852h3.43v9.431h-3.43c-2.604 0-4.716-2.111-4.716-4.716.001-2.604 2.112-4.715 4.716-4.715z" fill="#723e33"/></g></g><g><path d="m275.148 225.119v57.887c0 11.505 4.661 21.923 12.2 29.462 5.444 5.434 12.376 9.37 20.131 11.152 3.006.685 6.129 1.048 9.341 1.048 23.01 0 41.672-18.653 41.672-41.662v-57.887c0-12.611-10.232-22.833-22.843-22.833h-37.668c-2.213 0-4.347.313-6.374.911-9.507 2.75-16.459 11.523-16.459 21.922z" fill="#8e4e3f"/><path d="m275.148 225.119v57.887c0 11.505 4.661 21.923 12.2 29.462 5.444 5.434 12.376 9.37 20.131 11.152 18.525-4.24 32.331-20.816 32.331-40.615v-22.148c0-28.816-20.797-52.766-48.203-57.661-9.507 2.751-16.459 11.524-16.459 21.923z" fill="#9b5b42"/><g fill="#8e4e3f"><path d="m305.037 263.478h8.495c3.489 0 6.318 2.828 6.318 6.318 0 3.489-2.828 6.318-6.318 6.318h-8.495c-3.489 0-6.318-2.828-6.318-6.318s2.829-6.318 6.318-6.318z"/><path d="m306.162 202.284h10.657v65.482h-10.657z" transform="matrix(-1 0 0 -1 622.981 470.05)"/></g><g fill="#334353"><path d="m328.128 238.766c3.189 0 5.773 2.585 5.773 5.773v10.077c0 3.188-2.585 5.773-5.773 5.773s-5.773-2.585-5.773-5.773v-10.076c0-3.189 2.584-5.774 5.773-5.774z"/><path d="m294.853 238.766c3.189 0 5.773 2.585 5.773 5.773v10.077c0 3.188-2.585 5.773-5.773 5.773-3.189 0-5.773-2.585-5.773-5.773v-10.076c-.001-3.189 2.584-5.774 5.773-5.774z"/></g><g><path d="m315.31 299.396c10.002 0 18.138-8.137 18.138-18.138 0-1.893-1.534-3.427-3.427-3.427s-3.427 1.534-3.427 3.427c0 6.222-5.062 11.284-11.284 11.284-1.893 0-3.427 1.534-3.427 3.427s1.535 3.427 3.427 3.427z" fill="#723e33"/></g></g><g><path d="m358.488 271.557h7.024c1.228 0 2.405-.21 3.508-.582v2.929c0 5.828-4.724 10.552-10.552 10.552z" fill="#442a21"/><path d="m358.489 249.578h7.024c1.169 0 2.274.232 3.331.57l.177.009v-28.754c0-13.342-10.816-24.158-24.158-24.158h-28.041v6.034c0 7.875 6.384 14.258 14.258 14.258 4.823 0 8.732 3.909 8.732 8.732v5.126c0 10.042 8.141 18.183 18.183 18.183l.495.026v-.026z" fill="#442a21"/><path d="m270.274 208.692c0 3-2.432 5.431-5.431 5.431-1.292 0-2.541-.46-3.524-1.299l-6.492-5.536c-2.309-1.969-5.866-.328-5.866 2.707v7.658c0 10.72 8.69 19.41 19.41 19.41 4.455 0 8.728-1.77 11.879-4.92l6.887-6.887c4.942-4.942 11.644-7.718 18.633-7.718h29.597c5.604 0 10.146-4.543 10.146-10.146 0-5.604-4.543-10.146-10.146-10.146h-53.647c-6.322-.001-11.446 5.124-11.446 11.446z" fill="#543029"/></g></g></g><g><g><path d="m232.848 242.797v90.015c0 2.454-.729 4.748-1.992 6.668-1.583 2.454-4.019 4.286-6.9 5.086-1.049.302-2.169.462-3.308.462h-137.972c-1.156 0-2.258-.16-3.307-.462-2.881-.8-5.317-2.632-6.9-5.086-1.263-1.921-1.992-4.214-1.992-6.668v-90.015c0-1.138.16-2.258.462-3.308 1.138-4.072 4.339-7.291 8.429-8.429 1.049-.302 2.169-.462 3.307-.462h137.974c1.156 0 2.258.16 3.308.462 4.072 1.138 7.291 4.339 8.429 8.429.302 1.05.462 2.17.462 3.308z" fill="#c2aacf"/><path d="m230.856 339.48c-2.17 3.343-5.922 5.548-10.207 5.548h-137.973c-4.286 0-8.038-2.205-10.207-5.548 4.819-13.764 17.925-23.615 33.306-23.615h91.757c15.4 0 28.505 9.851 33.324 23.615z" fill="#9175a7"/><path d="m88.259 242.797v90.015c0 2.454-.729 4.748-1.992 6.668-1.583 2.454-4.019 4.286-6.9 5.086-2.881-.8-5.317-2.632-6.9-5.086-1.263-1.921-1.992-4.214-1.992-6.668v-90.015c0-5.584 3.752-10.296 8.891-11.736 5.141 1.44 8.893 6.152 8.893 11.736z" fill="#a583bb"/><path d="m232.848 242.797v90.015c0 2.454-.729 4.748-1.992 6.668-1.583 2.454-4.019 4.286-6.9 5.086-2.881-.8-5.317-2.632-6.9-5.086-1.263-1.921-1.992-4.214-1.992-6.668v-90.015c0-5.602 3.77-10.314 8.891-11.736 5.123 1.422 8.893 6.134 8.893 11.736z" fill="#decee5"/><path d="m117.022 247.198h69.281c4.456 0 8.069-3.613 8.069-8.069s-3.612-8.069-8.069-8.069h-69.281c-4.456 0-8.069 3.612-8.069 8.069s3.613 8.069 8.069 8.069z" fill="#ebd9ea"/></g><path d="m163.135 329.598h-22.945c-4.063 0-7.356 3.293-7.356 7.356v30.302h37.658v-30.302c-.001-4.063-3.294-7.356-7.357-7.356z" fill="#a583bb"/><g><path d="m194.805 367.255h-86.285c-4.406 0-7.978 3.572-7.978 7.978s3.572 7.978 7.978 7.978h86.285c4.406 0 7.978-3.572 7.978-7.978s-3.572-7.978-7.978-7.978z" fill="#c2aacf"/><path d="m178.263 367.255h-53.202c-2.717 0-4.919 2.202-4.919 4.919s2.202 4.919 4.919 4.919h53.202c2.717 0 4.919-2.202 4.919-4.919s-2.202-4.919-4.919-4.919z" fill="#decee5"/></g></g><g><g id="Speech-bubble_9_"><path d="m201.355 208.715c4.569 0 9.045-2.231 11.734-6.339l45.178-69.045c4.235-6.473 2.422-15.155-4.052-19.39-6.473-4.236-15.153-2.421-19.39 4.052l-45.178 69.045c-4.235 6.473-2.422 15.155 4.052 19.39 2.365 1.547 5.026 2.287 7.656 2.287z" fill="#f9eaf9"/><path d="m377.05 30.38v72.13c0 12.34-4.18 23.69-11.2 32.74-9.78 12.58-25.04 20.67-42.21 20.67h-135.28c-17.16 0-32.43-8.09-42.19-20.67-7.03-9.05-11.22-20.4-11.22-32.74v-72.13c7.27-3.91 14.75-7.48 22.42-10.68 30.36-12.69 63.68-19.7 98.63-19.7 34.96 0 68.28 7.01 98.64 19.7 7.67 3.2 15.14 6.77 22.41 10.68z" fill="#f9eaf9"/><path d="m377.05 30.38v72.13c0 12.34-4.18 23.69-11.2 32.74-7.03-9.05-11.21-20.4-11.21-32.74v-82.81c7.67 3.2 15.14 6.77 22.41 10.68z" fill="#fff"/><path d="m157.37 19.7v82.81c0 12.34-4.18 23.69-11.2 32.74-7.03-9.05-11.22-20.4-11.22-32.74v-72.13c7.27-3.91 14.75-7.48 22.42-10.68z" fill="#decee5"/></g><g><path d="m321.226 41.418c-2.465-2.352-5.809-3.811-9.492-3.811h-111.468c-3.683 0-7.027 1.459-9.492 3.811-2.621 2.493-4.25 6.021-4.25 9.917v46.482l.006-.001c0 6.04 4.896 10.94 10.936 10.94h117.068c6.04 0 10.936-4.9 10.936-10.94l.006.001v-46.482c0-3.896-1.629-7.424-4.25-9.917z" fill="#4fcae8"/><path d="m325.469 97.817c0 6.04-4.895 10.94-10.935 10.94h-117.068c-6.04 0-10.935-4.9-10.935-10.94l63.4-38.554c3.728-2.267 8.41-2.267 12.138 0z" fill="#83d5ef"/><path d="m321.226 41.418-35.716 32.102-21.704 19.522c-4.435 3.995-11.178 3.995-15.612 0l-21.704-19.522-35.715-32.103c2.465-2.352 5.809-3.811 9.492-3.811h111.467c3.683.001 7.027 1.46 9.492 3.812z" fill="#cde6f6"/></g></g></g></g></svg>