<svg width="30" height="30" viewBox="0 0 30 30" fill="none" xmlns="http://www.w3.org/2000/svg">
<path d="M12.5875 25.6288C12.5874 25.4456 12.547 25.2647 12.4693 25.0989C12.3915 24.9331 12.2783 24.7864 12.1376 24.6692C11.9968 24.552 11.8321 24.4671 11.655 24.4206C11.4778 24.3741 11.2926 24.367 11.1125 24.4C9.47499 24.7 7.40874 24.745 6.85999 23.2025C6.38094 22.0075 5.58749 20.9644 4.56374 20.1838C4.49045 20.1438 4.42062 20.0978 4.35499 20.0463C4.26534 19.8102 4.10628 19.6068 3.89877 19.4629C3.69126 19.3189 3.44502 19.2412 3.19249 19.24H3.18624C2.8558 19.24 2.5388 19.3708 2.30456 19.6039C2.07031 19.837 1.93789 20.1533 1.93624 20.4838C1.93124 21.5025 2.94874 22.1563 3.36249 22.3763C3.84997 22.8661 4.24168 23.4426 4.51749 24.0763C4.97374 25.355 6.29624 27.2963 10.1 27.0463L10.1037 27.1688L10.1087 27.5038C10.1087 27.8353 10.2404 28.1532 10.4749 28.3876C10.7093 28.6221 11.0272 28.7538 11.3587 28.7538C11.6903 28.7538 12.0082 28.6221 12.2426 28.3876C12.477 28.1532 12.6087 27.8353 12.6087 27.5038L12.6025 27.1063C12.5962 26.8688 12.5875 26.5263 12.5875 25.6288ZM25.9212 6.72126C25.9612 6.56501 26 6.39126 26.0337 6.19626C26.236 4.80327 26.0598 3.38152 25.5237 2.08001C25.4562 1.91045 25.3524 1.7577 25.2196 1.63247C25.0868 1.50724 24.9282 1.41254 24.755 1.35501C24.31 1.20501 22.6675 0.908758 19.525 2.91751C16.9132 2.30291 14.1943 2.30291 11.5825 2.91751C8.45249 0.937508 6.81874 1.20751 6.37749 1.34876C6.19988 1.40388 6.03686 1.49805 5.90038 1.62437C5.7639 1.75068 5.65741 1.90594 5.58874 2.07876C5.04118 3.40536 4.86656 4.85637 5.08374 6.27501C5.11499 6.43376 5.14749 6.58251 5.18249 6.71751C4.14649 8.09705 3.59463 9.77987 3.61249 11.505C3.60937 11.8895 3.62731 12.2738 3.66624 12.6563C4.08374 18.41 7.83374 20.1363 10.4462 20.73C10.3895 20.8944 10.3403 21.0612 10.2987 21.23C10.2193 21.5519 10.2711 21.8922 10.4425 22.1759C10.614 22.4597 10.8912 22.6637 11.2131 22.7431C11.535 22.8225 11.8753 22.7708 12.159 22.5993C12.4428 22.4278 12.6468 22.1507 12.7262 21.8288C12.8058 21.4122 13.0098 21.0295 13.3112 20.7313C13.4931 20.5716 13.6247 20.3626 13.6901 20.1296C13.7555 19.8966 13.7518 19.6496 13.6795 19.4186C13.6073 19.1877 13.4695 18.9826 13.283 18.8285C13.0964 18.6743 12.8692 18.5775 12.6287 18.55C8.31124 18.0563 6.43624 16.2975 6.15374 12.4263C6.1228 12.1198 6.10903 11.8118 6.11249 11.5038C6.09263 10.2744 6.49898 9.07617 7.26249 8.11251C7.33887 8.01225 7.42022 7.91588 7.50624 7.82376C7.6594 7.65243 7.76237 7.4422 7.80382 7.21616C7.84528 6.99013 7.82363 6.75704 7.74124 6.54251C7.65707 6.31718 7.59225 6.08509 7.54749 5.84876C7.4457 5.17556 7.47927 4.48882 7.64624 3.82876C8.73268 4.13573 9.75516 4.63533 10.665 5.30376C10.8153 5.40388 10.9854 5.47054 11.1638 5.49922C11.3421 5.5279 11.5246 5.51794 11.6987 5.47001C14.2252 4.78434 16.8888 4.78477 19.415 5.47126C19.5901 5.51919 19.7736 5.52859 19.9527 5.49881C20.1318 5.46903 20.3023 5.40078 20.4525 5.29876C21.3584 4.62778 22.3769 4.12403 23.46 3.81126C23.6257 4.45519 23.6627 5.12551 23.5687 5.78376C23.5234 6.043 23.4527 6.29714 23.3575 6.54251C23.2751 6.75704 23.2534 6.99013 23.2949 7.21616C23.3364 7.4422 23.4393 7.65243 23.5925 7.82376C23.69 7.93251 23.7862 8.04876 23.8725 8.15876C24.6304 9.10622 25.0297 10.2908 25 11.5038C25.0021 11.8281 24.9862 12.1524 24.9525 12.475C24.6775 16.295 22.7962 18.055 18.4587 18.55C18.218 18.5773 17.9904 18.674 17.8037 18.8283C17.6169 18.9825 17.4789 19.1877 17.4066 19.419C17.3343 19.6502 17.3308 19.8974 17.3964 20.1306C17.462 20.3638 17.594 20.5729 17.7762 20.7325C18.0869 21.0387 18.2911 21.4366 18.3587 21.8675C18.4436 22.2024 18.4827 22.5472 18.475 22.8925V25.8088C18.4625 26.6188 18.4625 27.225 18.4625 27.5038C18.4625 27.8353 18.5942 28.1532 18.8286 28.3876C19.063 28.6221 19.381 28.7538 19.7125 28.7538C20.044 28.7538 20.3619 28.6221 20.5964 28.3876C20.8308 28.1532 20.9625 27.8353 20.9625 27.5038C20.9625 27.2325 20.9625 26.6388 20.975 25.8288V22.8913C20.9849 22.3388 20.9197 21.7875 20.7812 21.2525C20.7417 21.0768 20.6933 20.9033 20.6362 20.7325C22.5377 20.4164 24.2654 19.4359 25.5117 17.9655C26.7581 16.495 27.4422 14.6301 27.4425 12.7025C27.4837 12.3043 27.5029 11.9041 27.5 11.5038C27.5276 9.77724 26.9713 8.092 25.9212 6.72126Z" fill="#28a1b5"/>
</svg>
