<svg id="Capa_1" enable-background="new 0 0 510 510" height="512" viewBox="0 0 510 510" width="512" xmlns="http://www.w3.org/2000/svg" xmlns:xlink="http://www.w3.org/1999/xlink"><linearGradient id="lg1"><stop offset="0" stop-color="#fccece"/><stop offset="1" stop-color="#fba5c2"/></linearGradient><linearGradient id="SVGID_1_" gradientTransform="matrix(.707 -.707 .707 .707 215.196 1029.529)" gradientUnits="userSpaceOnUse" x1="548.64" x2="702.867" xlink:href="#lg1" y1="-649.979" y2="-352.853"/><linearGradient id="lg2"><stop offset="0" stop-color="#fccece" stop-opacity="0"/><stop offset="1" stop-color="#bb4966"/></linearGradient><linearGradient id="SVGID_2_" gradientTransform="matrix(.707 -.707 .707 .707 215.196 1029.529)" gradientUnits="userSpaceOnUse" x1="649.718" x2="421.625" xlink:href="#lg2" y1="-460.216" y2="-451.809"/><linearGradient id="lg3"><stop offset="0" stop-color="#ffe548"/><stop offset=".1758" stop-color="#ffde50"/><stop offset=".4446" stop-color="#ffca65"/><stop offset=".7709" stop-color="#ffaa87"/><stop offset="1" stop-color="#ff90a4"/></linearGradient><linearGradient id="SVGID_3_" gradientTransform="matrix(.707 .707 .707 -.707 215.196 263.074)" gradientUnits="userSpaceOnUse" x1="157.423" x2="250.199" xlink:href="#lg3" y1="-34.206" y2="132.369"/><linearGradient id="lg4"><stop offset="0" stop-color="#fba5c2" stop-opacity="0"/><stop offset="1" stop-color="#a34a9e"/></linearGradient><linearGradient id="SVGID_4_" gradientTransform="matrix(.707 -.707 .707 .707 215.196 1029.529)" gradientUnits="userSpaceOnUse" x1="593.579" x2="582.283" xlink:href="#lg4" y1="-567.22" y2="-636.766"/><linearGradient id="SVGID_5_" gradientTransform="matrix(.707 -.707 .707 .707 215.196 1029.529)" gradientUnits="userSpaceOnUse" x1="589.026" x2="589.017" xlink:href="#lg4" y1="-589.972" y2="-590.031"/><linearGradient id="SVGID_6_" gradientTransform="matrix(.707 -.707 .707 .707 215.196 1029.529)" gradientUnits="userSpaceOnUse" x1="589.687" x2="589.68" xlink:href="#lg4" y1="-590.072" y2="-590.12"/><linearGradient id="SVGID_7_" gradientUnits="userSpaceOnUse" x1="156.211" x2="134.206" xlink:href="#lg2" y1="154.479" y2="198.489"/><linearGradient id="SVGID_8_" gradientUnits="userSpaceOnUse" x1="192.502" x2="159.055" xlink:href="#lg2" y1="102.843" y2="160.936"/><linearGradient id="SVGID_9_" gradientUnits="userSpaceOnUse" x1="232.965" x2="197.757" xlink:href="#lg4" y1="90.878" y2="126.086"/><linearGradient id="SVGID_10_" gradientTransform="matrix(.707 -.707 .707 .707 215.196 1029.529)" gradientUnits="userSpaceOnUse" x1="611.633" x2="651.787" xlink:href="#lg4" y1="-492.93" y2="-665.297"/><linearGradient id="SVGID_11_" gradientUnits="userSpaceOnUse" x1="169.08" x2="146.782" xlink:href="#lg2" y1="241.084" y2="282.16"/><linearGradient id="SVGID_12_" gradientUnits="userSpaceOnUse" x1="425.384" x2="8.169" xlink:href="#lg2" y1="316.003" y2="36.98"/><linearGradient id="SVGID_13_" gradientTransform="matrix(1 -.003 .003 1 -.77 4.63)" gradientUnits="userSpaceOnUse" x1="238.021" x2="322.52" xlink:href="#lg1" y1="193.141" y2="473.924"/><radialGradient id="SVGID_14_" cx="428.406" cy="305.196" gradientUnits="userSpaceOnUse" r="74.373"><stop offset="0" stop-color="#bb4966"/><stop offset="1" stop-color="#fccece" stop-opacity="0"/></radialGradient><linearGradient id="SVGID_15_" gradientUnits="userSpaceOnUse" x1="345.473" x2="437.014" xlink:href="#lg3" y1="344.76" y2="465.641"/><linearGradient id="SVGID_16_" gradientTransform="matrix(.705 -.71 .71 .705 217.861 1033.434)" gradientUnits="userSpaceOnUse" x1="566.837" x2="566.827" xlink:href="#lg4" y1="-559.532" y2="-559.591"/><linearGradient id="SVGID_17_" gradientTransform="matrix(.705 -.71 .71 .705 217.861 1033.434)" gradientUnits="userSpaceOnUse" x1="567.498" x2="567.49" xlink:href="#lg4" y1="-559.632" y2="-559.68"/><linearGradient id="lg5"><stop offset="0" stop-color="#a34a9e"/><stop offset="1" stop-color="#343168"/></linearGradient><linearGradient id="SVGID_18_" gradientTransform="matrix(.688 .726 -.726 .688 504.033 -1027.804)" gradientUnits="userSpaceOnUse" x1="721.656" x2="737.165" xlink:href="#lg5" y1="801.806" y2="814.05"/><linearGradient id="SVGID_19_" gradientTransform="matrix(.988 .156 -.156 .988 16.375 -252.483)" gradientUnits="userSpaceOnUse" x1="394.867" x2="410.376" xlink:href="#lg5" y1="216.197" y2="228.441"/><linearGradient id="SVGID_20_" gradientTransform="matrix(.878 -.479 .479 .878 102.281 659.412)" gradientUnits="userSpaceOnUse" x1="492.69" x2="508.199" xlink:href="#lg5" y1="-447.248" y2="-435.004"/><linearGradient id="SVGID_21_" gradientTransform="matrix(.895 -.447 .447 .895 -104.887 247.901)" gradientUnits="userSpaceOnUse" x1="249.505" x2="265.014" xlink:href="#lg5" y1="-74.401" y2="-62.157"/><linearGradient id="SVGID_22_" gradientTransform="matrix(.437 -.9 .9 .437 494.79 940.23)" gradientUnits="userSpaceOnUse" x1="554.553" x2="570.062" xlink:href="#lg5" y1="-766.231" y2="-753.987"/><linearGradient id="SVGID_23_" gradientTransform="matrix(-.202 -.979 .979 -.202 1392.171 1123.639)" gradientUnits="userSpaceOnUse" x1="1218.044" x2="1233.554" xlink:href="#lg5" y1="-1128.809" y2="-1116.565"/><path d="m368.32 68.184-9.485 5.949c-18.529 11.622-28.326 33.186-24.891 54.787l4.99 31.381c.214 1.348.528 2.679.946 3.978 1.561 4.848 1.685 9.964.486 14.779 0 0-22.358-21.073-26.663-23.804l-8.995-5.706c-9.181-5.824-16.97-13.578-22.859-22.718-18.689-29.006-56.999-78.436-72.821-91.992-15.269-13.083-39.856 7.073-30.803 25.252 6.449 12.951 50.976 66.369 74.061 96.933 1.146 1.517-.974 3.335-2.297 1.97-30.509-31.46-86.349-84.224-100.182-94.062-19.838-14.108-41.702 8.973-27.392 28.918 9.798 13.657 62.395 68.212 92.238 99.865 1.305 1.384-.606 3.423-2.07 2.208-29.67-24.639-84.243-68.999-97.349-75.322-18.111-8.736-36.715 17.044-23.309 32.298 9.732 11.074 68.938 59.627 98.33 83.049 1.438 1.146-.021 3.382-1.649 2.527-28.027-14.716-82.404-48.389-93.532-51.311-19.448-5.107-32.773 23.758-16.694 36.164 12.903 9.955 63.49 38.038 93.421 53.848l16.092 25.367c21.982 34.651 42.598 51.152 79.358 70.676 15.187 8.066 28.204 19.981 35.665 35.474l18.944 18.944 122.826-122.826-18.944-18.944c-.083-.04-.166-.08-.249-.121-13.276-6.467-20.39-21.208-17.529-35.696l3.174-9.227c6.454-18.762 5.602-39.267-2.387-57.428l-7.859-17.866c-10.691-24.305-15.906-50.664-15.275-77.21l.242-10.159c.215-9.124-9.807-14.824-17.539-9.975z" fill="url(#SVGID_1_)"/><path d="m385.858 78.159-.244 10.159c-.499 21.173 2.711 42.228 9.463 62.212 1.712 5.076 3.65 10.081 5.813 15.003l7.864 17.862c7.983 18.16 8.839 38.667 2.384 57.427l-3.174 9.225c-2.865 14.492 4.25 29.228 17.529 35.695.077.042.166.083.244.125l18.944 18.944-59.353 59.353c-17.018-4.892-33.109-13.969-46.62-27.254-43.303-42.555-43.91-112.161-1.349-155.459.892-.904 1.795-1.795 2.705-2.669.196.184.303.279.303.279.059-.238.119-.476.16-.719 1.022-4.601.838-9.457-.648-14.058-.416-1.308-.731-2.633-.951-3.983l-4.987-31.379c-3.436-21.601 6.36-43.167 24.888-54.788l9.493-5.95c7.728-4.85 17.756.85 17.536 9.975z" fill="url(#SVGID_2_)"/><path d="m480.672 311.702-27.814-27.814c-8.943-8.943-23.442-8.943-32.384 0l-118.539 118.539c-8.943 8.943-8.943 23.442 0 32.384l27.814 27.814c8.943 8.943 23.442 8.943 32.384 0l118.539-118.539c8.943-8.942 8.943-23.441 0-32.384z" fill="url(#SVGID_3_)"/><path d="m340.366 179.058s-22.358-21.073-26.663-23.804l-8.995-5.706c-5.506-3.493-10.507-7.685-14.902-12.448-12.015 4.507-24.715 11.536-37.194 20.804.029.989-1.016 1.813-1.984 1.494-6.898 5.265-13.714 11.208-20.291 17.785-5.572 5.572-10.687 11.316-15.322 17.136.32.991-.551 2.027-1.547 1.968-10.324 13.31-18.118 26.963-23.021 39.845.865.937.174 2.366-.921 2.517-7.785 21.989-6.948 41.474 4.337 52.76 21.471 21.471 72.612 5.141 114.226-36.474 15.808-15.808 27.967-32.991 35.792-49.399 4.166-8.734 2.754-19.107-3.515-26.478z" fill="url(#SVGID_4_)"/><path d="m214.734 195.697c-.1.137-.23.255-.367.342.143-.094.261-.212.367-.342z" fill="url(#SVGID_5_)"/><path d="m214.858 195.51c.075-.112.131-.243.168-.367-.037.136-.087.261-.168.367z" fill="url(#SVGID_6_)"/><path d="m212.58 195.921c.286.237.591.355.89.367-10.326 13.313-18.124 26.962-23.022 39.839-.062-.062-.124-.124-.193-.18-27.69-22.064-81.839-66.441-96.154-80.756-.884-.884-1.612-1.649-2.178-2.29-7.662-8.72-4.861-20.881 2.322-28.064 5.384-5.384 13.232-7.979 20.993-4.239 13.108 6.324 67.673 50.682 97.342 75.323z" fill="url(#SVGID_7_)"/><path d="m249.993 158.994c.199.199.417.342.635.411-6.902 5.259-13.711 11.197-20.29 17.776-5.57 5.57-10.687 11.321-15.323 17.141-.062-.212-.181-.417-.361-.61-14.925-15.821-35.533-37.375-53.638-56.675-18.099-19.307-33.696-36.36-38.601-43.182-7.301-10.176-5.185-21.168 1.27-27.622 6.199-6.199 16.406-8.216 26.122-1.301 13.835 9.839 69.67 62.6 100.186 94.062z" fill="url(#SVGID_8_)"/><path d="m281.847 126.828c2.446 3.803 5.228 7.357 8.29 10.631-.106-.118-.224-.236-.33-.355-12.018 4.5-24.715 11.533-37.194 20.8 0-.286-.106-.591-.324-.884-11.545-15.28-28.443-36.273-43.269-55.069s-27.566-35.383-30.796-41.862c-4.12-8.278-1.263-16.96 4.512-22.736 6.902-6.902 17.981-9.641 26.29-2.514 15.822 13.555 54.137 62.986 72.821 91.989z" fill="url(#SVGID_9_)"/><path d="m252.09 240.028c-25.584 25.584-41.328 56.529-46.555 86.772 16.495 19.407 34.766 32.105 61.715 46.418 15.187 8.066 28.204 19.981 35.665 35.474l18.944 18.944 122.826-122.826-18.944-18.944c-.083-.04-.166-.08-.249-.121-13.276-6.467-20.39-21.208-17.529-35.696l3.174-9.227c3.91-11.365 5.12-23.369 3.705-35.105-45.724-27.499-113.98-14.461-162.752 34.311z" fill="url(#SVGID_10_)"/><path d="m233.208 266.43-44.602-27.955c-28.027-14.716-82.404-48.389-93.532-51.311-19.448-5.107-32.773 23.758-16.694 36.164 12.903 9.955 63.49 38.038 93.421 53.848l16.092 25.367c12.995 20.485 25.515 34.625 41.173 46.798z" fill="url(#SVGID_11_)"/><path d="m321.86 427.636 122.826-122.826-18.944-18.944c-.083-.04-.166-.08-.249-.121-13.276-6.467-20.39-21.208-17.529-35.696l3.174-9.227c6.454-18.762 5.602-39.267-2.387-57.428l-7.859-17.866c-7.904-17.968-12.805-37.06-14.574-56.519-3.548-2.417-8.406-2.869-12.583-.23l-9.465 5.981c-15.696 9.918-25.071 26.981-25.402 45.118l.067.423c.214 1.348.528 2.679.946 3.978 1.315 4.084 1.598 8.357.942 12.48 1.916 10.823 5.354 30.22 5.491 30.86l-131.981-131.654c-7.686-6.541-17.69-4.697-24.598 1.055 16.412 21.969 45.399 57.293 62.552 80.003 1.146 1.517-.974 3.335-2.297 1.97-18.476-19.052-46.239-45.914-68.339-66.327-.076 2.843.518 5.774 1.963 8.654 6.492 12.929 51.197 66.199 74.384 96.685 1.042 1.37-.59 2.987-1.895 2.273-.74-.741-88.108-84.996-100.891-94.022-8.384-5.92-17.106-5.228-23.313-.956 19.087 21.703 58.46 62.647 82.754 88.415 1.305 1.384-.606 3.423-2.07 2.208-25.237-20.957-68.485-56.179-88.913-70.128.62 3.133 1.985 6.342 4.246 9.471 9.844 13.624 62.622 68.003 92.57 99.556 1.31 1.38-.595 3.425-2.063 2.215-29.751-24.54-84.472-68.718-97.6-74.996-6.302-3.014-12.647-1.859-17.684 1.565 21.104 18.863 63.627 53.626 87.115 72.343 1.438 1.146-.021 3.382-1.65 2.528-28.027-14.716-82.404-48.389-93.532-51.311-.503-.132-1-.228-1.495-.315.678 2.663 1.985 5.24 4.044 7.567s70.327 70.417 70.611 70.706c-27.377-15.57-59.138-34.325-67.348-36.451-4.605-1.193-8.853-.471-12.453 1.468 20.088 12.689 58.726 34.022 83.367 47.037l16.092 25.367c21.982 34.651 42.598 51.152 79.358 70.676 15.187 8.066 28.204 19.981 35.665 35.474z" fill="url(#SVGID_12_)"/><path d="m431.881 326.269c-.083-.04-.167-.08-.25-.12-13.298-6.423-20.46-21.14-17.648-35.637l3.143-9.238c6.391-18.783 5.471-39.285-2.579-57.42l-7.918-17.839c-10.772-24.269-16.075-50.611-15.533-77.158l.208-10.16c.186-9.126-9.854-14.793-17.57-9.917l-9.465 5.981c-18.49 11.684-28.215 33.28-24.708 54.87l5.095 31.364c.219 1.347.537 2.677.96 3.975 1.577 4.843 1.719 9.959.535 14.777 0 0-22.428-20.998-26.742-23.715l-9.014-5.676c-9.2-5.793-17.015-13.522-22.934-22.641-18.786-28.943-57.261-78.246-73.127-91.749-15.313-13.032-39.832 7.206-30.719 25.355 6.492 12.929 51.197 66.199 74.384 96.685 1.151 1.513-.962 3.338-2.291 1.978-30.614-31.359-86.63-83.936-100.495-93.727-19.885-14.042-41.672 9.113-27.296 29.01 9.844 13.624 62.622 68.003 92.571 99.556 1.31 1.38-.595 3.425-2.063 2.215-29.751-24.54-84.472-68.718-97.6-74.996-18.14-8.675-36.658 17.167-23.201 32.376 9.769 11.041 69.136 59.396 98.607 82.721 1.442 1.141-.01 3.382-1.641 2.533-28.076-14.622-82.565-48.114-93.702-50.998-19.465-5.042-32.693 23.867-16.573 36.219 12.936 9.912 63.616 37.826 93.6 53.536l16.177 25.313c22.097 34.577 42.768 51.009 79.593 70.41 15.214 8.015 28.271 19.887 35.783 35.355l19.008 18.881 122.413-123.238z" fill="url(#SVGID_13_)"/><path d="m431.881 326.269c-.083-.04-.167-.08-.25-.12-13.298-6.423-20.46-21.14-17.648-35.637l3.143-9.238c6.391-18.783 5.471-39.285-2.579-57.42l-1.399-3.153c-41.761 10.158-72.703 47.866-72.554 92.732.128 38.467 23.076 71.521 55.98 86.394l54.314-54.677z" fill="url(#SVGID_14_)"/><path d="m486.898 351.921-27.906-27.721c-8.973-8.913-23.471-8.864-32.384.108l-118.143 118.934c-8.913 8.972-8.864 23.471.108 32.384l27.907 27.721c8.973 8.913 23.471 8.864 32.384-.108l118.142-118.933c8.913-8.973 8.865-23.472-.108-32.385z" fill="url(#SVGID_15_)"/><path d="m220.574 236.804c-.099.137-.229.256-.366.343.143-.094.261-.212.366-.343z" fill="url(#SVGID_16_)"/><path d="m220.698 236.617c.074-.112.13-.243.167-.368-.037.137-.086.262-.167.368z" fill="url(#SVGID_17_)"/><path d="m396.647 69.031 6.579-21.406c2.982-9.702 12.232-17.203 22.03-17.864 11.377-.767 19.568 7.867 18.204 19.187-1.175 9.75-9.152 18.593-18.998 21.06l-21.722 5.444c-3.839.963-7.256-2.638-6.093-6.421z" fill="url(#SVGID_18_)"/><path d="m368.083 53.208-7.83-20.98c-3.549-9.51-.787-21.094 6.578-27.589 8.552-7.542 20.309-5.689 26.126 4.118 5.011 8.446 4.076 20.318-2.226 28.275l-13.904 17.555c-2.457 3.102-7.36 2.329-8.744-1.379z" fill="url(#SVGID_19_)"/><path d="m335.794 58.072-18.995-11.861c-8.61-5.376-13.48-16.244-11.599-25.883 2.183-11.192 12.634-16.888 23.223-12.658 9.12 3.643 15.615 13.625 15.468 23.774l-.324 22.391c-.058 3.958-4.416 6.333-7.773 4.237z" fill="url(#SVGID_20_)"/><path d="m99.014 97.463-18.561-12.528c-8.413-5.678-12.895-16.712-10.673-26.278 2.579-11.107 13.225-16.429 23.657-11.826 8.985 3.964 15.121 14.17 14.614 24.308l-1.119 22.366c-.197 3.952-4.638 6.172-7.918 3.958z" fill="url(#SVGID_21_)"/><path d="m75.558 120.18-22.351 1.38c-10.131.626-20.408-5.391-24.477-14.329-4.724-10.378.472-21.085 11.548-23.794 9.54-2.333 20.625 2.019 26.401 10.365l12.744 18.414c2.252 3.254.085 7.72-3.865 7.964z" fill="url(#SVGID_22_)"/><path d="m70.807 152.485-16.879 14.717c-7.651 6.671-19.465 8.164-28.139 3.558-10.07-5.348-12.476-17.005-5.346-25.903 6.141-7.664 17.582-10.969 27.248-7.873l21.326 6.832c3.769 1.207 4.773 6.069 1.79 8.669z" fill="url(#SVGID_23_)"/></svg>