<?xml version="1.0" encoding="iso-8859-1"?>
<!-- Generator: Adobe Illustrator 19.0.0, SVG Export Plug-In . SVG Version: 6.00 Build 0)  -->
<svg version="1.1" id="Capa_1" xmlns="http://www.w3.org/2000/svg" xmlns:xlink="http://www.w3.org/1999/xlink" x="0px" y="0px"
	 viewBox="0 0 512 512" style="enable-background:new 0 0 512 512;" xml:space="preserve">
<linearGradient id="SVGID_1_" gradientUnits="userSpaceOnUse" x1="256" y1="509" x2="256" y2="-1.04" gradientTransform="matrix(1 0 0 -1 0 514)">
	<stop  offset="0" style="stop-color:#94E4D1"/>
	<stop  offset="1" style="stop-color:#32ADB7"/>
</linearGradient>
<path style="fill:url(#SVGID_1_);" d="M512,118.226v275.547C512,459.071,459.071,512,393.774,512H118.227
	C52.929,512,0,459.071,0,393.774V118.226C0,52.929,52.929,0,118.227,0h275.547C459.071,0,512,52.929,512,118.226z"/>
<linearGradient id="SVGID_2_" gradientUnits="userSpaceOnUse" x1="256" y1="505.078" x2="256" y2="3.01" gradientTransform="matrix(1 0 0 -1 0 514)">
	<stop  offset="0" style="stop-color:#57D4B7"/>
	<stop  offset="1" style="stop-color:#209AB7"/>
</linearGradient>
<path style="fill:url(#SVGID_2_);" d="M118.226,508C55.242,508,4,456.758,4,393.773V118.227C4,55.242,55.242,4,118.226,4h275.547
	C456.758,4,508,55.242,508,118.227v275.547C508,456.758,456.758,508,393.773,508H118.226z"/>
<linearGradient id="SVGID_3_" gradientUnits="userSpaceOnUse" x1="195.9825" y1="303.9825" x2="462.6125" y2="37.3525" gradientTransform="matrix(1 0 0 -1 0 514)">
	<stop  offset="0" style="stop-color:#006793"/>
	<stop  offset="1" style="stop-color:#2C9FB7;stop-opacity:0"/>
</linearGradient>
<path style="opacity:0.5;fill:url(#SVGID_3_);enable-background:new    ;" d="M512,330.07v63.7C512,459.07,459.07,512,393.77,512
	H302L98,308l236.323-155.537C334.343,152.483,508,326.07,508,326.07L512,330.07z"/>
<path style="opacity:0.3;fill:#1A1A1A;enable-background:new    ;" d="M380.635,233.711c-4.068,0-8.022,0.481-11.822,1.362
	c-1.717-53.568-45.677-96.469-99.662-96.469c-44.099,0-81.506,28.627-94.667,68.31c-6.031-1.785-12.411-2.758-19.022-2.758
	c-36.973,0-66.945,29.972-66.945,66.945s29.972,66.945,66.945,66.945c20.035,0,206.094,0,225.173,0
	c28.811,0,52.167-23.356,52.167-52.167S409.446,233.711,380.635,233.711z"/>
<linearGradient id="SVGID_4_" gradientUnits="userSpaceOnUse" x1="255.6595" y1="376.54" x2="255.6595" y2="155.87" gradientTransform="matrix(1 0 0 -1 0 514)">
	<stop  offset="0" style="stop-color:#FFFFFF"/>
	<stop  offset="1" style="stop-color:#A3A3A3"/>
</linearGradient>
<path style="fill:url(#SVGID_4_);" d="M375.635,228.711c-4.068,0-8.022,0.481-11.822,1.362
	c-1.717-53.568-45.677-96.469-99.662-96.469c-44.099,0-81.506,28.627-94.667,68.31c-6.031-1.785-12.411-2.758-19.022-2.758
	c-36.973,0-66.945,29.972-66.945,66.945s29.972,66.945,66.945,66.945c20.035,0,206.094,0,225.173,0
	c28.811,0,52.167-23.356,52.167-52.167S404.446,228.711,375.635,228.711z"/>
<path style="fill:#FFFFFF;" d="M375.635,218.696c-4.068,0-8.022,0.481-11.822,1.362c-1.717-53.568-45.677-96.469-99.662-96.469
	c-44.099,0-81.506,28.627-94.667,68.31c-6.031-1.785-12.411-2.758-19.022-2.758c-36.973,0-66.945,29.972-66.945,66.945
	s29.972,66.945,66.945,66.945c20.035,0,206.094,0,225.173,0c28.811,0,52.167-23.356,52.167-52.167S404.446,218.696,375.635,218.696z
	"/>
<linearGradient id="SVGID_5_" gradientUnits="userSpaceOnUse" x1="255.6605" y1="384.63" x2="255.6605" y2="168.39" gradientTransform="matrix(1 0 0 -1 0 514)">
	<stop  offset="0" style="stop-color:#FFFFFF"/>
	<stop  offset="1" style="stop-color:#E6E6E6"/>
</linearGradient>
<path style="fill:url(#SVGID_5_);" d="M150.463,321.03c-35.811,0-64.945-29.134-64.945-64.945s29.134-64.945,64.945-64.945
	c6.246,0,12.455,0.9,18.454,2.676l1.857,0.549l0.609-1.838c13.278-40.038,50.56-66.939,92.769-66.939
	c25.547,0,49.71,9.795,68.039,27.582c18.288,17.747,28.81,41.524,29.624,66.951l0.078,2.435l2.372-0.55
	c3.751-0.869,7.576-1.31,11.371-1.31c27.662,0,50.167,22.505,50.167,50.167s-22.505,50.167-50.167,50.167L150.463,321.03
	L150.463,321.03z"/>
<path style="opacity:0.3;fill:#1A1A1A;enable-background:new    ;" d="M342.361,295.595c-0.878-18.037-23.8-27.782-37.218-14.367
	l-22.312,22.312v-98.153c0-3.768-0.955-7.313-2.635-10.406c-7.034-12.954-25.856-14.721-35.356-4.273
	c-3.524,3.877-5.672,9.027-5.672,14.679v98.152l-22.311-22.311c-4.263-4.263-9.85-6.394-15.438-6.394
	c-12.722,0-20.498,9.652-21.831,20.761v11.738h0.032c-0.176,5.807,1.93,11.67,6.362,16.103l59.58,59.581
	c8.411,8.4,22.47,8.416,30.875,0l59.581-59.581c4.432-4.432,6.538-10.296,6.362-16.103
	C342.397,305.999,342.382,296.895,342.361,295.595C342.361,295.595,342.382,296.895,342.361,295.595
	C342.361,295.595,342.382,296.895,342.361,295.595C342.361,295.595,342.382,296.895,342.361,295.595z"/>
<linearGradient id="SVGID_6_" gradientUnits="userSpaceOnUse" x1="255.9995" y1="131.57" x2="255.9995" y2="329.48" gradientTransform="matrix(1 0 0 -1 0 514)">
	<stop  offset="0" style="stop-color:#C97A22"/>
	<stop  offset="1" style="stop-color:#C96425"/>
</linearGradient>
<path style="fill:url(#SVGID_6_);" d="M337.412,290.595h-3.884c-0.737-1.064-1.562-2.086-2.51-3.034
	c-4.263-4.263-9.85-6.394-15.437-6.394c-5.588,0-11.174,2.132-15.438,6.394l-22.312,22.312V211.72
	c0-12.057-9.775-21.832-21.832-21.832s-21.832,9.774-21.832,21.832v98.152l-22.311-22.311c-8.526-8.525-22.348-8.525-30.875,0
	c-0.948,0.948-1.773,1.97-2.51,3.034h-3.884v11.738h0.032c-0.176,5.807,1.93,11.67,6.362,16.103l59.58,59.581
	c8.411,8.4,22.47,8.416,30.875,0l59.581-59.581c4.432-4.432,6.538-10.296,6.362-16.103h0.032v-11.738H337.412z"/>
<linearGradient id="SVGID_7_" gradientUnits="userSpaceOnUse" x1="256" y1="142.9" x2="256" y2="340.81" gradientTransform="matrix(1 0 0 -1 0 514)">
	<stop  offset="0" style="stop-color:#FFC847"/>
	<stop  offset="1" style="stop-color:#FFA24A"/>
</linearGradient>
<path style="fill:url(#SVGID_7_);" d="M331.018,307.103l-59.581,59.581c-8.41,8.41-22.469,8.406-30.875,0l-59.58-59.581
	c-8.525-8.526-8.525-22.349,0-30.875c8.526-8.525,22.348-8.525,30.875,0l22.311,22.311v-98.152c0-12.057,9.775-21.832,21.832-21.832
	c12.057,0,21.832,9.774,21.832,21.832v98.153l22.312-22.312c4.263-4.263,9.85-6.394,15.437-6.394s11.174,2.132,15.437,6.394
	C339.543,284.754,339.543,298.577,331.018,307.103z"/>
<linearGradient id="SVGID_8_" gradientUnits="userSpaceOnUse" x1="256" y1="144.78" x2="256" y2="338.7" gradientTransform="matrix(1 0 0 -1 0 514)">
	<stop  offset="0" style="stop-color:#F7BA2A"/>
	<stop  offset="1" style="stop-color:#F78F2D"/>
</linearGradient>
<path style="fill:url(#SVGID_8_);" d="M256,371.078c-5.193,0-10.32-2.19-13.996-5.783l-59.607-59.606
	c-7.732-7.732-7.732-20.313,0-28.046c3.746-3.745,8.727-5.808,14.023-5.808s10.277,2.063,14.023,5.808l25.725,25.726V200.387
	c0-10.935,8.896-19.832,19.832-19.832c10.935,0,19.831,8.896,19.831,19.832v102.981l25.727-25.726
	c3.746-3.746,8.726-5.808,14.022-5.808c5.298,0,10.277,2.063,14.023,5.808c7.732,7.733,7.732,20.314,0,28.046l-59.596,59.595
	C266.328,368.88,261.191,371.078,256,371.078z"/>
<g>
</g>
<g>
</g>
<g>
</g>
<g>
</g>
<g>
</g>
<g>
</g>
<g>
</g>
<g>
</g>
<g>
</g>
<g>
</g>
<g>
</g>
<g>
</g>
<g>
</g>
<g>
</g>
<g>
</g>
</svg>
