<svg height="480pt" viewBox="0 0 480 480" width="480pt" xmlns="http://www.w3.org/2000/svg"><path d="m240 8c-128.128906 0-232 103.871094-232 232s103.871094 232 232 232 232-103.871094 232-232-103.871094-232-232-232zm128 312h-98.910156l34.910156-48h-40v-72h-48v72h-40l34.910156 48h-74.910156c-29.433594.066406-55.945312-17.789062-66.945312-45.089844-11-27.300781-4.277344-58.546875 16.980468-78.90625 21.253906-20.359375 52.765625-25.730468 79.566406-13.5625 15.851563-46.773437 62.441407-75.921875 111.4375-69.722656 48.996094 6.199219 86.855469 46.035156 90.5625 95.28125h.398438c30.929688 0 56 25.070312 56 56s-25.070312 56-56 56zm0 0" fill="#78b9eb"/><g fill="#006df0"><path d="m240 0c-132.546875 0-240 107.453125-240 240s107.453125 240 240 240 240-107.453125 240-240c-.148438-132.484375-107.515625-239.851562-240-240zm0 464c-123.710938 0-224-100.289062-224-224s100.289062-224 224-224 224 100.289062 224 224c-.140625 123.652344-100.347656 223.859375-224 224zm0 0"/><path d="m374.800781 200.320312c-6.992187-49.777343-46.316406-88.78125-96.148437-95.367187-49.832032-6.582031-97.9375 20.875-117.613282 67.125-8.066406-2.710937-16.527343-4.089844-25.039062-4.078125-44.183594 0-80 35.816406-80 80s35.816406 80 80 80h70.878906l33.121094 45.601562 33.121094-45.601562h94.878906c34.1875.226562 62.511719-26.457031 64.332031-60.59375 1.816407-34.140625-23.515625-63.679688-57.53125-67.085938zm-134.800781 146.078126-48.320312-66.398438h32.320312v-72h32v72h32.320312zm128-34.398438h-83.199219l34.878907-48h-47.679688v-72h-64v72h-47.679688l34.878907 48h-59.199219c-35.347656 0-64-28.652344-64-64s28.652344-64 64-64c9.089844-.019531 18.070312 1.945312 26.320312 5.761719l8.078126 3.597656 2.800781-8.320313c14.660156-43.128906 57.640625-69.992187 102.832031-64.269531 45.191406 5.722657 80.121094 42.449219 83.570312 87.871094l.558594 7.359375h8.078125c26.511719.066406 47.949219 21.609375 47.882813 48.121094-.066406 26.507812-21.613282 47.945312-48.121094 47.878906zm0 0"/></g></svg>