<svg height="512pt" viewBox="0 0 512 512" width="512pt" xmlns="http://www.w3.org/2000/svg" xmlns:xlink="http://www.w3.org/1999/xlink"><linearGradient id="a" gradientTransform="matrix(1 0 0 -1 0 -15870)" gradientUnits="userSpaceOnUse" x1="0" x2="512" y1="-16126" y2="-16126"><stop offset="0" stop-color="#00f38d"/><stop offset="1" stop-color="#009eff"/></linearGradient><path d="m512 256c0 141.386719-114.613281 256-256 256s-256-114.613281-256-256 114.613281-256 256-256 256 114.613281 256 256zm0 0" fill="url(#a)"/><g fill="#fff"><path d="m392.832031 255.964844c0-75.460938-61.390625-136.855469-136.851562-136.855469-75.460938 0-136.851563 61.394531-136.851563 136.855469 0 75.460937 61.390625 136.851562 136.851563 136.851562 75.460937 0 136.851562-61.390625 136.851562-136.851562zm-136.851562 106.851562c-58.917969 0-106.851563-47.933594-106.851563-106.851562 0-58.921875 47.933594-106.855469 106.851563-106.855469s106.851562 47.933594 106.851562 106.855469c0 58.917968-47.933593 106.851562-106.851562 106.851562zm0 0"/><path d="m255.980469 198.003906c-31.960938 0-57.960938 26-57.960938 57.960938 0 31.957031 26 57.960937 57.960938 57.960937 31.960937 0 57.960937-26.003906 57.960937-57.960937 0-31.960938-26-57.960938-57.960937-57.960938zm0 85.921875c-15.417969 0-27.960938-12.542969-27.960938-27.960937 0-15.417969 12.542969-27.960938 27.960938-27.960938s27.960937 12.542969 27.960937 27.960938c0 15.417968-12.542968 27.960937-27.960937 27.960937zm0 0"/><path d="m92.257812 215.054688 4.433594-14.402344-29.863281-9.1875-4.761719 15.464844-3.640625 15.785156 30.445313 7.023437zm0 0"/><path d="m201.074219 96.390625 15.132812-6.300781-12.019531-28.84375-13.730469 5.722656-14.21875 4.375 9.1875 29.863281zm0 0"/><path d="m114.554688 163.921875 8.574218-12.863281-25.996094-17.332032-8.664062 13-8.578125 13.46875 26.359375 16.777344zm0 0"/><path d="m152.238281 122.898438 12.234375-10.011719-19.785156-24.183594-12.023438 9.839844-12.144531 9.714843 19.519531 24.398438zm0 0"/><path d="m324.269531 101.992188 12.015625-28.839844-15.113281-6.296875-15.664063-4.820313-9.191406 29.863282 14.222656 4.375zm0 0"/><path d="m271.222656 87.246094.394532-.003906v-31.242188h-31.652344l.015625 31.246094zm0 0"/><path d="m419.609375 214.691406 4.765625 15.480469 29.859375-9.1875-4.429687-14.398437-3.390626-14.6875-30.441406 7.027343zm0 0"/><path d="m397.117188 163.476562 9.746093 13.449219 25.265625-18.375-8.90625-12.25-8.132812-12.777343-26.359375 16.773437zm0 0"/><path d="m87.863281 270.363281-1.3125-15.769531-31.136719 2.597656 1.289063 15.476563 1.109375 15.503906 31.164062-2.226563zm0 0"/><path d="m370.363281 132.542969 20.902344-23.226563-12.21875-10.992187-13.304687-9.675781-18.375 25.265624 11.984374 8.71875zm0 0"/><path d="m335.71875 404.652344-13.691406 9.957031 18.375 25.269531 11.59375-8.429687 12.824218-6.414063-13.972656-27.945312zm0 0"/><path d="m369.613281 381.898438 23.226563 20.902343 20.910156-23.234375-23.234375-20.890625zm0 0"/><path d="m101.648438 324.261719-7.441407-14.964844-27.945312 13.972656 6.75 13.496094 5.804687 13.933594 28.839844-12.015625zm0 0"/><path d="m425.242188 254.398438-1.109376 15.503906-1.289062 15.476562 31.136719 2.597656 1.296875-15.570312 1.128906-15.78125zm0 0"/><path d="m410.664062 323.4375-6.75 13.496094 27.949219 13.972656 6.984375-13.972656 6.460938-15.414063-28.839844-12.015625zm0 0"/><path d="m164.957031 396.390625-18.378906 25.265625 13.683594 9.949219 15.140625 7.574219 13.972656-27.945313-12.824219-6.414063zm0 0"/><path d="m98.4375 379.808594 20.910156 23.234375 23.214844-20.910157-20.902344-23.226562zm0 0"/><path d="m207.996094 450.914062 30.898437 4.753907 4.734375-30.886719-30.878906-4.75zm0 0"/><path d="m268.667969 424.726562 4.75 30.882813 30.894531-4.753906-4.761719-30.878907zm0 0"/></g></svg>