<?xml version="1.0" encoding="utf-8"?>
<svg id="master-artboard" viewBox="0 0 1400 980" version="1.1" xmlns="http://www.w3.org/2000/svg" x="0px" y="0px" style="enable-background:new 0 0 1400 980;" width="1400px" height="980px" xmlns:xlink="http://www.w3.org/1999/xlink"><defs><linearGradient id="linear-gradient" x1="1120.42" y1="695.45" x2="1054.42" y2="941.43" gradientUnits="userSpaceOnUse"><stop offset="0" stop-color="#ebc09f"/><stop offset="1" stop-color="#ffcf9f"/></linearGradient><linearGradient id="linear-gradient-2" x1="1222.82" y1="452.61" x2="984.34" y2="668.6" xlink:href="#linear-gradient"/><linearGradient id="linear-gradient-3" x1="821.2" y1="327.96" x2="1170.68" y2="489.95" gradientUnits="userSpaceOnUse"><stop offset="0" stop-color="#520080"/><stop offset="1" stop-color="#3b0064"/></linearGradient><linearGradient id="linear-gradient-4" x1="1186.67" y1="1349.05" x2="884.67" y2="1345.05" gradientUnits="userSpaceOnUse"><stop offset="0" stop-color="#30272c"/><stop offset="1" stop-color="#443d3d"/></linearGradient><linearGradient id="linear-gradient-5" x1="1098.28" y1="867.25" x2="1052.28" y2="1102.25" gradientUnits="userSpaceOnUse"><stop offset="0" stop-color="#ccc"/><stop offset="1" stop-color="#fff"/></linearGradient><linearGradient id="linear-gradient-6" x1="1025.03" y1="1340.55" x2="1753.33" y2="1340.55" xlink:href="#linear-gradient-4"/><linearGradient id="linear-gradient-7" x1="762.3" y1="1255.91" x2="736.8" y2="1762.88" gradientUnits="userSpaceOnUse"><stop offset="0" stop-color="#5f5d55"/><stop offset="1" stop-color="#7a6e6e"/></linearGradient><linearGradient id="linear-gradient-8" x1="1199.26" y1="694.45" x2="1013.26" y2="1396.45" xlink:href="#linear-gradient-5"/><linearGradient id="linear-gradient-9" x1="1040.62" y1="1626.72" x2="1099.11" y2="924.76" gradientUnits="userSpaceOnUse"><stop offset="0" stop-color="#ff6a8b"/><stop offset="1" stop-color="#e5a3a3"/></linearGradient><linearGradient id="linear-gradient-10" x1="1049.53" y1="979.1" x2="1070.2" y2="927.77" xlink:href="#linear-gradient-9"/><linearGradient id="linear-gradient-11" x1="1155.42" y1="1234.19" x2="737.28" y2="1364.24" xlink:href="#linear-gradient-7"/><linearGradient id="linear-gradient-12" x1="1061.23" y1="1201.58" x2="980.24" y2="1236.08" xlink:href="#linear-gradient-7"/><linearGradient id="linear-gradient-13" x1="965.96" y1="1031.48" x2="988.46" y2="900.98" xlink:href="#linear-gradient-7"/><linearGradient id="linear-gradient-14" x1="966.28" y1="1203.05" x2="1576.56" y2="1413.15" xlink:href="#linear-gradient-7"/><linearGradient id="linear-gradient-15" x1="1043.52" y1="1016.7" x2="1152.52" y2="1245.7" xlink:href="#linear-gradient-7"/><linearGradient id="linear-gradient-16" x1="1212.71" y1="1030.15" x2="1195.71" y2="931.15" xlink:href="#linear-gradient-7"/></defs><g transform="matrix(0.5235042409000233, 0, 0, 0.5235042409000233, 105.29913894292008, -0.00000252007180279179)"><title>Artboard 1</title><g id="Background"><path d="M 0 0 H 2272 V 1872 H 0 V 0 Z" class="cls-1" style="fill: rgb(116, 196, 255);"/><path class="cls-2" d="M259.37,918.74H2012.63a104,104,0,0,1,104,104v387.65a104,104,0,0,1-88,102.74L301.23,1782.29a104,104,0,0,1-119.91-98.64L155.48,1026.8A104,104,0,0,1,259.37,918.74Z" style="fill: rgb(187, 255, 252);"/></g><g id="Object"><path class="cls-3" d="M1191.35,678.84s-19.23,56.65-13.06,143.75c0,0-87.47,69.37-104.62,69.17s-51.84-56.46-51.84-56.46,15-60.11,0-115.22C1021.83,720.08,1118.86,736.26,1191.35,678.84Z" style="fill: url('#linear-gradient');"/><path class="cls-4" d="M1032.43,922.78s14.45,49.14,18.5,52.6,30.57,3.47,35.81,0,23.15-47.4,23.15-47.4l-38.73-38.73Z" style="fill: rgb(221, 34, 34);"/><path class="cls-5" d="M1202.18,491.56c9.25,30.82,22.35,149.52,12.34,171.1s-114.84,114.07-135.65,111S977.13,692.72,971,676.53C952.47,628,955.55,501.58,955.55,501.58s24.66-71,110.21-81S1202.18,491.56,1202.18,491.56Z" style="fill: url('#linear-gradient-2');"/><path class="cls-6" d="M1217.1,600.89s-14.92-64.63-50.37-106.25c0,0-164.94,127.17-307.52,33.91S747.45,315.06,747.45,315.06s.77,42.39,30.83,70.13c0,0-68.6-101.73,29.29-166.47s163.78,60.11,147.79,107.13c0,0,145.09-100.2,246.05,5.39S1217.1,600.89,1217.1,600.89Z" style="fill: url('#linear-gradient-3');"/><path class="cls-7" d="M1071.16,1696.21,1025,1872H827.34c-31.21-372.61-127.29-809.33-126.13-819.73.9-8.1,191.84-144.52,276.81-204.84h0c24.33-17.28,40-28.31,40-28.31l16.18,58.2-15.26,54.91-4.77,17.15s-5.78,28.34-13.92,69c-18.27,91.26-48.4,244.6-51.6,279-2.29,24.55,27.6,122.19,58.41,214.71C1038.6,1606.82,1071.16,1696.21,1071.16,1696.21Z" style="fill: url('#linear-gradient-4');"/><path class="cls-8" d="M1034.16,877.31l-15.26,54.91-4.77,17.15s-5.78,28.34-13.92,69C980.34,994.59,946,952.86,944,945.9c-2.11-7.14,21.18-66.59,34-98.47h0c24.33-17.28,40-28.31,40-28.31Z" style="fill: rgb(68, 61, 61);"/><path class="cls-9" d="M1018,819.12s52.41,67,57.8,67S1186,809.1,1186,809.1s7.71,30.06,4.62,44.7S1139,969.41,1139,969.41L1071.16,897l-57,52.41Z" style="fill: url('#linear-gradient-5');"/><path class="cls-10" d="M1753.33,1566.81c0,15.61-131.79,223.7-143.92,223.7s-164.25-198.73-164.25-198.73L1406.52,1872H1025s21-170,48.64-372.61c24.77-181.5,54.92-389.2,80.18-524.44q1-5.25,2-10.33c6.94-36.5,13.49-67.19,19.41-90L1186,809.1l48,24.41c126.3,64.27,458.92,233.81,467.35,240.83C1711.72,1083,1753.33,1551.2,1753.33,1566.81Z" style="fill: url('#linear-gradient-6');"/><path class="cls-8" d="M1250.35,996.77c-.42,4.27-63.47-12.66-96.5-21.82,7.67-41.05,14.88-75.41,21.36-100.34L1186,809.1l48,24.41C1238.41,875,1250.83,992,1250.35,996.77Z" style="fill: rgb(68, 61, 61);"/><path d="M 1397.890015 1525.73999 L 1445.160034 1591.780029" class="cls-11" style="fill: rgb(255, 255, 255);"/><path d="M 1532.52002 1471.47998 L 1559.819946 1515.089966" class="cls-11" style="fill: rgb(255, 255, 255);"/><path class="cls-12" d="M701.21,1052.27s16.08,425.18,26.79,491.4c8.26,51,81.73,160.18,81.73,160.18s24.54-232.39-18.79-420.58S701.21,1052.27,701.21,1052.27Z" style="fill: url('#linear-gradient-7');"/><path class="cls-13" d="M1230.32,994.59c-.11,7-.35,14.71-.74,23.11h0c-1.89,41-7.08,97.77-15.5,159.24h0c-18.6,135.85-53,294.45-102.49,355.16-8.42,10.33-17.27,17.82-26.56,21.89a126.09,126.09,0,0,1-19.69,6.84c-15.16,3.83-29,3.8-41.67.48a75.19,75.19,0,0,1-13.77-5.11c-53.36-25.85-83.21-114.93-100.6-215.67-3.65-21.18-4.29-45.89-2.74-72.6v0c4.89-84,31.44-187.67,54-263,2.66-8.91,5.27-17.42,7.78-25.45,8.22-26.28,15.38-47.46,20-60.76h228.16c6.24,11.83,11.1,26.84,13,45.88A270.54,270.54,0,0,1,1230.32,994.59Z" style="fill: url('#linear-gradient-8');"/><path class="cls-14" d="M1115.86,1584.46l-40.4,77.18-15.85,2.47-5.24.81-2.29-4.22-38-70.08s-1.75-13.31-4.22-34.4c-1.6-13.64-3.51-30.53-5.43-49.17h0c-.13-1.27-.26-2.53-.39-3.82v0c-5.79-56.75-11.64-128.46-10-174.61,2.66-74.31,45.87-293.14,57.84-352.59,1.93-9.61,3-15.05,3-15.05l32.37,1.45s-.17,4.2-.39,12.84c-.59,22.91-1.5,77-.38,166.84.52,41.85,4.92,116.32,10.16,192.36a0,0,0,0,1,0,0c2,29.33,4.17,58.89,6.27,86.9h0c3.18,42.58,6.25,81.59,8.59,110.77C1114.17,1564.24,1115.86,1584.46,1115.86,1584.46Z" style="fill: url('#linear-gradient-9');"/><path class="cls-15" d="M1109.89,928s-1.17,2.86-3,7.17c-5.24,12.39-15.89,36.77-20,40.07l-.21.16c-4.92,3.26-28.59,3.46-34.82.6a4.45,4.45,0,0,1-1-.6c-3-2.6-12-31-16.2-44.94-1.41-4.62-2.3-7.66-2.3-7.66l4.67-4h63.55Z" style="fill: url('#linear-gradient-10');"/><path class="cls-16" d="M1059.61,1664.11l-5.24.81-3,3.33-241.61,35.6c-39.94-324.17-109.51-642.73-108.52-651.58.62-5.61,92.36-72.74,176.94-133.53h144.5l-3.75,13.48-4.77,17.14h0a.18.18,0,0,1,0,0l-.06.28q0,.13-.06.33a1.18,1.18,0,0,0,0,.2l-.06.26c0,.07,0,.13,0,.21-.09.42-.19.94-.32,1.55,0,.13,0,.25-.08.38a1.42,1.42,0,0,1,0,.2c0,.25-.1.5-.15.77s-.1.49-.15.75c0,.07,0,.15,0,.22l-.12.58c0,.16-.06.32-.1.48s0,.06,0,.09,0,.14-.05.21a2.56,2.56,0,0,1,0,.27l-.12.58c0,.26-.11.52-.16.79s-.09.44-.14.67-.15.73-.22,1.12a1.84,1.84,0,0,0-.05.25l-.18.87-.06.3c-.1.48-.2,1-.31,1.49-.38,1.92-.81,4.05-1.28,6.35-.15.76-.31,1.54-.47,2.34l0,.08-.18.93,0,0c-.07.32-.13.64-.19,1-.14.69-.28,1.39-.43,2.1s-.26,1.28-.39,1.94-.32,1.58-.49,2.4c-.22,1.12-.45,2.27-.69,3.44-.15.78-.31,1.58-.48,2.38s-.27,1.34-.41,2-.3,1.53-.46,2.3c0,.21-.08.42-.13.63-.11.54-.21,1.07-.32,1.61-.15.75-.3,1.51-.46,2.28l-.39,1.93c0,.24-.09.48-.15.73-.18.9-.36,1.81-.55,2.72l-.09.5c-.14.67-.27,1.34-.41,2-.52,2.59-1,5.26-1.6,8-.07.31-.13.63-.2.95s-.14.74-.22,1.11c-.41,2.08-.83,4.18-1.26,6.33-.32,1.59-.64,3.21-1,4.84-.26,1.29-.52,2.58-.78,3.89-.38,1.91-.76,3.83-1.16,5.79-.06.33-.13.65-.19,1q-.89,4.47-1.81,9.07-.67,3.42-1.37,6.88-1,5.22-2.09,10.57c-.94,4.75-1.9,9.58-2.86,14.46q-.72,3.66-1.45,7.37l-1.47,7.44c-1.23,6.23-2.46,12.53-3.69,18.85-.69,3.54-1.39,7.08-2.07,10.63-.18.9-.36,1.81-.53,2.72q-1,5-2,10.07-.69,3.52-1.36,7-.65,3.3-1.27,6.59c-.17.87-.34,1.75-.5,2.62l-.42,2.18q-.74,3.78-1.45,7.55c-.48,2.51-.95,5-1.43,7.49-2.24,11.74-4.41,23.25-6.47,34.31-.3,1.59-.59,3.16-.88,4.73,0,.23-.09.47-.13.7q-.64,3.46-1.27,6.86l-1.83,10c-.2,1.09-.4,2.18-.59,3.26-1.47,8.08-2.84,15.77-4.09,23l-.33,1.91c0,.31-.11.62-.16.94-.17.94-.33,1.87-.48,2.78-.1.58-.2,1.15-.29,1.71s-.2,1.14-.29,1.7-.19,1.11-.28,1.67q-.7,4.14-1.34,8c-.08.48-.16,1-.23,1.43-.51,3.15-1,6.13-1.42,8.92-.11.72-.22,1.42-.32,2.11-.14.91-.28,1.8-.4,2.67-.06.38-.12.76-.17,1.14-.17,1.12-.32,2.21-.47,3.25-.1.68-.19,1.33-.27,2-.13,1-.25,1.92-.37,2.82-.06.46-.11.92-.17,1.36-.21,1.78-.39,3.38-.52,4.78a39.48,39.48,0,0,0-.05,5.51c0,.35,0,.72.06,1.09s.06,1,.11,1.44c0,.27,0,.54.07.82.12,1.29.27,2.65.47,4.09,0,.28.07.57.11.86.65,4.79,1.65,10.35,3,16.59.17.84.35,1.69.54,2.56s.36,1.67.55,2.52c1.1,4.92,2.36,10.21,3.76,15.8.31,1.24.62,2.49.95,3.76.08.28.15.56.22.85.27,1,.54,2.09.82,3.15q.83,3.18,1.71,6.46c.43,1.64.88,3.31,1.35,5a1.94,1.94,0,0,1,0,.2c.29,1.06.58,2.12.88,3.2a.29.29,0,0,1,0,.09q1.41,5.07,2.92,10.37c.84,3,1.71,6,2.6,9,.62,2.17,1.27,4.37,1.92,6.58.09.28.17.56.25.84q.82,2.8,1.68,5.66l.57,1.9c.38,1.27.76,2.55,1.15,3.84q.93,3.11,1.89,6.25,1.43,4.67,2.89,9.41,2.09,6.78,4.25,13.7,1.85,5.88,3.74,11.84,1.1,3.46,2.22,7,2,6.19,4,12.46l1.5,4.65q2.63,8.07,5.29,16.2,2,6.07,4,12.14v0l2.94,8.85c5.58,16.74,11.19,33.32,16.65,49.26,11.23,32.83,21.81,63,30.12,86.41C1055.88,1653.65,1057.83,1659.13,1059.61,1664.11Z" style="fill: url('#linear-gradient-11');"/><path class="cls-17" d="M948.61,1297.36c-2.29,24.55,27.6,122.19,58.41,214.71-31.11-61.34-92-182.29-95.4-196.59-4.63-19.28-16.19-206.57-16.19-219.66,0-11.39,97.77-132.08,123.47-163.6l-4.77,17.15S953.24,1247.65,948.61,1297.36Z" style="fill: url('#linear-gradient-12');"/><path class="cls-18" d="M1022.65,918.74l-3.75,13.48-4.77,17.14h0a.18.18,0,0,1,0,0l-.06.28q0,.13-.06.33a1.18,1.18,0,0,0,0,.2l-.06.26c0,.07,0,.13,0,.21-.09.42-.19.94-.32,1.55,0,.13,0,.25-.08.38a1.42,1.42,0,0,1,0,.2c0,.25-.1.5-.15.77-.26,1.28-.58,2.83-.95,4.64-.07.36-.15.73-.22,1.12a1.84,1.84,0,0,0-.05.25l-.18.87-.06.3c-.1.48-.2,1-.31,1.49-.38,1.92-.81,4.05-1.28,6.35-.15.76-.31,1.54-.47,2.34l-.84,4.13c-.13.63-.26,1.28-.39,1.94s-.32,1.58-.49,2.4c-.22,1.12-.45,2.27-.69,3.44-.15.78-.31,1.58-.48,2.38-.56,2.81-1.16,5.77-1.78,8.84-.51,2.55-1,5.19-1.59,7.9q-1.56,7.78-3.28,16.38h0c-7.35-8.8-16.69-20.07-25.63-31.12-2.11-2.6-4.2-5.19-6.24-7.74C955.7,963.68,945.1,949.68,944,945.9c-.82-2.76,2.17-13.36,6.89-27.16Z" style="fill: url('#linear-gradient-13');"/><path d="M 1047.4599609375 918.739990234375 L 1034.72998046875 930.4400024414062 L 1014.1300048828125 949.3599853515625 L 1014.1300048828125 949.3699951171875 L 1014.1199951171875 949.3699951171875 L 1014.469970703125 937.6599731445312 L 1015.030029296875 918.739990234375 L 1047.4599609375 918.739990234375 Z" class="cls-19" style="fill: rgb(242, 242, 242);"/><path class="cls-19" d="M1162.88,918.74c-12.25,26.44-23.9,50.67-23.9,50.67l-32.07-34.26-15.36-16.41Z" style="fill: rgb(242, 242, 242);"/><path class="cls-20" d="M1752.73,1557,1455,1604.57c-5.33-6.91-9.83-12.79-9.83-12.79l-1.81,13.1-392,61.48c.2-1.55.54-4.09.74-5.66.57-4.28,1.13-8.6,1.71-13,3.62-27.48,7.49-56.62,11.55-86.89,2.7-20,5.48-40.58,8.33-61.46q1.15-8.51,2.34-17.09c3.7-27,7.51-54.51,11.4-82.21l1.23-8.69q4-28.43,8.09-57a0,0,0,0,0,0,0q.9-6.23,1.79-12.43l1.8-12.43q1.67-11.43,3.32-22.81c.7-4.79,1.41-9.56,2.1-14.33,3.94-26.71,7.89-53.13,11.84-79,.39-2.55.78-5.1,1.17-7.63l.66-4.27q.45-3,.91-5.91c.12-.81.25-1.61.37-2.41q.64-4.18,1.29-8.34c0-.34.1-.67.16-1,.38-2.43.75-4.86,1.13-7.28q1.24-8,2.5-15.94l.72-4.55q1-6.09,1.92-12.12c.33-2,.65-4.08,1-6.11l.9-5.62c.44-2.74.88-5.46,1.32-8.18.34-2.12.68-4.21,1-6.3.08-.52.16-1,.25-1.55.42-2.61.85-5.21,1.27-7.79q2.31-14.09,4.59-27.71.48-2.79.94-5.56c0-.29.09-.57.14-.85.29-1.68.57-3.35.85-5q.82-4.86,1.64-9.64.63-3.62,1.24-7.2,1.34-7.73,2.65-15.23c.18-1,.36-2.07.55-3.1.36-2.07.73-4.11,1.09-6.15q3-17.13,6-33c.24-1.29.48-2.56.72-3.83s.47-2.53.71-3.79c0-.17.07-.35.1-.52l.42-2.19q.81-4.26,1.61-8.41,1.14-5.87,2.25-11.5c.41-2.09.83-4.15,1.24-6.2l0-.15c.36-1.82.73-3.62,1.09-5.4q1.5-7.34,3-14.22h236.18c138.75,70.88,294.43,150.83,300.16,155.6C1710.94,1082.36,1747.36,1484.7,1752.73,1557Z" style="fill: url('#linear-gradient-14');"/><path class="cls-21" d="M1267.7,1069c-.52,6.2-130.07,245.1-194,430.36,24.77-181.5,54.92-389.2,80.18-524.44q1-5.25,2-10.33l43.11,16.55S1268.27,1062.09,1267.7,1069Z" style="fill: url('#linear-gradient-15');"/><path class="cls-22" d="M1250.35,996.77c-.15,1.52-8.21.36-20-2.18-7.25-1.56-15.91-3.64-25-5.93-17.82-4.49-37.36-9.81-51.44-13.71.24-1.29.48-2.56.72-3.83s.47-2.53.71-3.79a2.38,2.38,0,0,0,0-.26q1.05-5.52,2.08-10.86,1.14-5.87,2.25-11.5c.41-2.09.83-4.15,1.24-6.2l0-.15c.36-1.82.73-3.62,1.09-5.4q1.5-7.34,3-14.22h78C1247,957.86,1250.61,994.17,1250.35,996.77Z" style="fill: url('#linear-gradient-16');"/><path class="cls-23" d="M1532.52,1471.48s-19.28,64.58-36.35,73-98.28-18.73-98.28-18.73-100.24-133-109.93-146.93-10.36-40.08-10.36-40.08-54.55-96-58.81-118.87,47.53-59.66,58.35-59.8,25.73,38.81,25.73,38.81l22,3.55s.11-.34.32-1c1.4-4.13,7.16-20.59,12.06-26.4,5.62-6.66,81.66-49.47,98.56-50.9S1551,1252.08,1559,1282.34s-45.82,134.61-47.47,142.48S1532.52,1471.48,1532.52,1471.48Z" style="fill: rgb(255, 218, 182);"/><path class="cls-24" d="M1360.32,1217.73,1347,1229.12l-79.31-13.53-12.6-11.67,17.87-10,29.91,4.93,22,3.55s.11-.34.32-1c2.62,5.64,6.21,11.61,10.58,14.69,9.73,6.83,21-.49,21-.49Z" style="fill: rgb(102, 102, 102);"/><path class="cls-24" d="M1463.53,1305.45c-22.65,9.28-39.33,30.48-49.3,43.15-3.53,4.49-7.53,9.58-8.94,10.12-5.45,2.06-18.22-4.46-19.9-7.67-1.15-3,5.57-20.85,13.07-34.77,5.13-9.51,23-27.73,25.23-30a157.11,157.11,0,0,1,32.51-12.5L1455,1269c-31.35,7.78-61,28.51-80.61,42.22-7.59,5.31-15.43,10.79-17.51,11-1-.27-2.7-1.73-4.78-5.07-4.58-7.35-7.42-17.83-6.54-21.22,1.41-4,26.55-24.12,50.33-41.54,13.42-7.45,27.1-14.07,39.45-17.94l-1.5-4.77c-12.76,4-26.51,10.61-40.07,18.13l0,0-.35.25c-14.13,7.86-28.05,16.68-40.44,24.53-14.5,9.2-30.93,19.6-34.21,18.89-8.15-2.29-12.63-16.29-11.17-24,2-4.66,35.49-34.17,66.13-59.73,17.52-9.8,36.4-22.26,37.63-23.08l-2.76-4.17c-.47.31-47,31-61.18,33.87-12.64,2.52-20.18-14.73-20.26-14.91l-2.3,1-2.3,1c.34.8,7.92,18.22,22.21,18.22a17.82,17.82,0,0,0,3.63-.37,36.28,36.28,0,0,0,6.38-2.06c-5.22,4.45-11.22,9.61-17.22,14.85s-10.94,9.63-15,13.34L1302.72,1226l-3.67,3.39,19.75,21.41c-15.43,14.23-15.87,16.35-16.12,17.63-1.91,9.57,3.54,26.7,14.69,29.83a5,5,0,0,0,1.44.19c5.53,0,16.43-6.74,36.81-19.66l2.35-1.49c-9.14,7.57-16.48,14.4-17.25,17.35-1.48,5.7,2.56,17.83,7.13,25.16,2.69,4.32,5.42,6.79,8.11,7.34a4.6,4.6,0,0,0,.84.08c3.23,0,8.25-3.38,20.45-11.91,8.91-6.23,19.92-13.92,32.18-21.15-5.84,6.47-12.41,14.3-15.37,19.78-.17.32-16.93,32.07-13.11,39.42,2.42,4.65,13.75,10.74,22,10.74a11.7,11.7,0,0,0,4.17-.68c2.59-1,5.43-4.49,11.09-11.7,9.67-12.28,25.84-32.83,47.27-41.61Z" style="fill: rgb(102, 102, 102);"/><path d="M 1397.8900146484375 1526.25 L 1442.719970703125 1593.530029296875 L 1447.5999755859375 1590.030029296875 L 1406.6199951171875 1528.5400390625 L 1397.8900146484375 1526.25 Z" class="cls-25" style="fill: rgb(77, 77, 77);"/><path d="M 1543.170044 1467.560059 H 1549.170044 V 1519.010059 H 1543.170044 V 1467.560059 Z" class="cls-25" transform="translate(-556.73 1047.9) rotate(-32.04)" style="fill: rgb(77, 77, 77);"/><path d="M 447.6300048828125 1590.8499755859375 L 435.6199951171875 1580.27001953125 L 656.6599731445312 1329.530029296875 L 854.4500122070312 1488.199951171875 L 1066.9599609375 1230.02001953125 L 1161.68994140625 1307.280029296875 L 1248.8599853515625 1198.9100341796875 L 1261.3199462890625 1208.9300537109375 L 1164.0699462890625 1329.8599853515625 L 1069.199951171875 1252.489990234375 L 856.760009765625 1510.5699462890625 L 658.5700073242188 1351.5699462890625 L 447.6300048828125 1590.8499755859375 Z" class="cls-26" style="fill: rgb(237, 187, 0);"/><path d="M 288.630005 1463.47998 H 360.630005 V 1479.47998 H 288.630005 V 1463.47998 Z" class="cls-26" style="fill: rgb(237, 187, 0);"/><path d="M 288.630005 1349.790039 H 360.630005 V 1365.790039 H 288.630005 V 1349.790039 Z" class="cls-26" style="fill: rgb(237, 187, 0);"/><path d="M 288.630005 1236.099976 H 360.630005 V 1252.099976 H 288.630005 V 1236.099976 Z" class="cls-26" style="fill: rgb(237, 187, 0);"/><path d="M 288.630005 1122.410034 H 360.630005 V 1138.410034 H 288.630005 V 1122.410034 Z" class="cls-26" style="fill: rgb(237, 187, 0);"/><path d="M 439.98999 1508.47998 H 449.98999 V 1517.47998 H 439.98999 V 1508.47998 Z" class="cls-27" transform="translate(-974.23 825.27) rotate(-47.76)" style="fill: rgb(0, 191, 213);"/><path class="cls-27" d="M464.76,1497.9l-6.66-6.05,13.07-14.4,6.67,6Zm26.15-28.8-6.66-6,13.08-14.4,6.66,6Zm26.16-28.8-6.66-6,13.08-14.4,6.66,6.05Z" style="fill: rgb(0, 191, 213);"/><path d="M 543.22998046875 1411.489990234375 L 536.5700073242188 1405.43994140625 L 546.1099853515625 1394.93994140625 L 557.260009765625 1403.719970703125 L 551.6900024414062 1410.7900390625 L 547.1300048828125 1407.199951171875 L 543.22998046875 1411.489990234375 Z" class="cls-27" style="fill: rgb(0, 191, 213);"/><path class="cls-27" d="M625.41,1468.88,607,1454.35l5.57-7.06L631,1461.81Zm-36.86-29.05-18.43-14.52,5.57-7.07,18.43,14.52Z" style="fill: rgb(0, 191, 213);"/><path d="M 654.52001953125 1491.8199462890625 L 643.8400268554688 1483.4000244140625 L 649.4099731445312 1476.3299560546875 L 654.4299926757812 1480.2900390625 L 659.3800048828125 1476.25 L 665.0700073242188 1483.219970703125 L 654.52001953125 1491.8199462890625 Z" class="cls-27" style="fill: rgb(0, 191, 213);"/><path class="cls-27" d="M680.8,1470.4l-5.68-7,15.73-12.82,5.69,7Zm31.47-25.65-5.69-7L722.32,1425l5.68,7Zm31.47-25.65-5.69-7,15.73-12.83,5.69,7Zm31.46-25.65-5.68-7,15.73-12.83,5.69,7Zm31.47-25.65-5.69-7L816.72,1348l5.68,7Zm31.47-25.64-5.69-7,15.74-12.82,5.68,7Zm31.46-25.65-5.68-7,15.73-12.82,5.69,7Z" style="fill: rgb(0, 191, 213);"/><path d="M 901.0700073242188 1290.8599853515625 L 895.3800048828125 1283.8800048828125 L 905.4500122070312 1275.6800537109375 L 916.9199829101562 1281.739990234375 L 912.72998046875 1289.699951171875 L 906.510009765625 1286.4200439453125 L 901.0700073242188 1290.8599853515625 Z" class="cls-27" style="fill: rgb(0, 191, 213);"/><path class="cls-27" d="M1022.27,1347.48l-18.26-9.63,4.2-8,18.26,9.63Zm-36.52-19.26-18.25-9.63,4.2-8,18.25,9.63ZM949.24,1309,931,1299.33l4.2-8,18.26,9.63Z" style="fill: rgb(0, 191, 213);"/><path d="M 1052.510009765625 1363.4300537109375 L 1040.530029296875 1357.1099853515625 L 1044.719970703125 1349.1500244140625 L 1050.4300537109375 1352.1600341796875 L 1054.68994140625 1347.31005859375 L 1061.449951171875 1353.25 L 1052.510009765625 1363.4300537109375 Z" class="cls-27" style="fill: rgb(0, 191, 213);"/><path class="cls-27" d="M1075.72,1337l-6.76-5.94,14.26-16.24,6.76,5.94Zm28.53-32.47-6.76-5.94,14.26-16.24,6.76,5.94Z" style="fill: rgb(0, 191, 213);"/><path d="M 1127.699951 1260.829956 H 1137.699951 V 1269.829956 H 1127.699951 V 1260.829956 Z" class="cls-27" transform="translate(-565.48 1281.29) rotate(-48.7)" style="fill: rgb(0, 191, 213);"/></g></g></svg>